# This file uses centimeters as units for non-parametric coordinates.

g default
v 0.341165 0.641698 -0.016886
v 0.417940 0.641698 -0.016886
v 0.341165 0.641698 0.029684
v 0.417940 0.641698 0.029684
v 0.341165 0.754614 0.029684
v 0.417940 0.754614 0.029684
v 0.341165 0.754614 -0.016886
v 0.417940 0.754614 -0.016886
v 0.132872 0.794693 0.000000
v 0.050753 0.854356 0.000000
v -0.050753 0.854356 0.000000
v -0.132872 0.794693 0.000000
v -0.164239 0.698156 0.000000
v 0.164239 0.698156 0.000000
v 0.145844 0.804118 0.038712
v 0.055707 0.869606 0.038711
v -0.055708 0.869606 0.038711
v -0.145844 0.804118 0.038711
v -0.180274 0.698156 0.038711
v 0.180274 0.698156 0.038711
v 0.177163 0.826872 0.054746
v 0.067670 0.906423 0.054746
v -0.067670 0.906423 0.054746
v -0.177163 0.826872 0.054746
v -0.218985 0.698156 0.054746
v 0.218985 0.698156 0.054746
v 0.208481 0.849626 0.038711
v 0.079633 0.943240 0.038711
v -0.079633 0.943240 0.038711
v -0.208481 0.849626 0.038711
v -0.257696 0.698156 0.038712
v 0.257696 0.698156 0.038711
v 0.221453 0.859051 0.000000
v 0.084588 0.958490 0.000000
v -0.084588 0.958490 0.000000
v -0.221453 0.859051 0.000000
v -0.273731 0.698156 0.000000
v 0.273731 0.698156 0.000000
v 0.208481 0.849626 -0.038711
v 0.079633 0.943240 -0.038711
v -0.079633 0.943240 -0.038711
v -0.208481 0.849626 -0.038711
v -0.257696 0.698156 -0.038711
v 0.257696 0.698156 -0.038711
v 0.177163 0.826872 -0.054746
v 0.067670 0.906423 -0.054746
v -0.067670 0.906423 -0.054746
v -0.177163 0.826872 -0.054746
v -0.218985 0.698156 -0.054746
v 0.218985 0.698156 -0.054746
v 0.145844 0.804118 -0.038711
v 0.055707 0.869606 -0.038711
v -0.055708 0.869606 -0.038711
v -0.145844 0.804118 -0.038711
v -0.180274 0.698156 -0.038711
v 0.180274 0.698156 -0.038711
v -0.341165 0.641698 -0.016886
v -0.417940 0.641698 -0.016886
v -0.341165 0.641698 0.029684
v -0.417940 0.641698 0.029684
v -0.341165 0.754614 0.029684
v -0.417940 0.754614 0.029684
v -0.341165 0.754614 -0.016886
v -0.417940 0.754614 -0.016886
v -0.525972 0.020922 -0.085374
v 0.525972 -0.000300 -0.085374
v -0.525972 0.020922 0.085374
v 0.525972 -0.000300 0.085374
v -0.525972 0.710730 0.085374
v 0.525972 0.731953 0.085374
v -0.525972 0.710730 -0.085374
v 0.525972 0.731953 -0.085374
v 0.510453 0.010502 -0.002568
v -0.510453 0.031099 -0.002568
v -0.510453 0.700554 -0.002568
v 0.510453 0.721150 -0.002568
v 0.520154 0.003750 0.005958
v 0.520154 0.727902 0.005958
v -0.520154 0.706915 0.005958
v -0.520154 0.024738 0.005958
v -0.520154 0.024738 -0.010445
v -0.520154 0.706915 -0.010445
v 0.520154 0.727902 -0.010445
v 0.520154 0.003750 -0.010445
vt 0.683666 0.439506
vt 0.713913 0.439506
vt 0.683666 0.469753
vt 0.713913 0.469753
vt 0.683666 0.500000
vt 0.713913 0.500000
vt 0.683666 0.530247
vt 0.713913 0.530247
vt 0.683666 0.560494
vt 0.713913 0.560494
vt 0.744160 0.439506
vt 0.744160 0.469753
vt 0.653419 0.439506
vt 0.653419 0.469753
vt 0.228543 0.951579
vt 0.214469 0.951579
vt 0.214469 0.933986
vt 0.228543 0.933986
vt 0.242617 0.951579
vt 0.242617 0.933986
vt 0.256691 0.951579
vt 0.256691 0.933986
vt 0.270765 0.951579
vt 0.270765 0.933986
vt 0.355210 0.951579
vt 0.341136 0.951579
vt 0.341136 0.933986
vt 0.355210 0.933986
vt 0.214469 0.916394
vt 0.228543 0.916394
vt 0.242617 0.916394
vt 0.256691 0.916394
vt 0.270765 0.916394
vt 0.341136 0.916394
vt 0.355210 0.916394
vt 0.214469 0.898801
vt 0.228543 0.898801
vt 0.242617 0.898801
vt 0.256691 0.898801
vt 0.270765 0.898801
vt 0.341136 0.898801
vt 0.355210 0.898801
vt 0.214469 0.881209
vt 0.228543 0.881209
vt 0.242617 0.881209
vt 0.256691 0.881209
vt 0.270765 0.881209
vt 0.341136 0.881209
vt 0.355210 0.881209
vt 0.214469 0.863616
vt 0.228543 0.863616
vt 0.242617 0.863616
vt 0.256691 0.863616
vt 0.270765 0.863616
vt 0.341136 0.863616
vt 0.355210 0.863616
vt 0.214469 0.846024
vt 0.228543 0.846024
vt 0.242617 0.846024
vt 0.256691 0.846024
vt 0.270765 0.846024
vt 0.341136 0.846024
vt 0.355210 0.846024
vt 0.214469 0.828431
vt 0.228543 0.828431
vt 0.242617 0.828431
vt 0.256691 0.828431
vt 0.270765 0.828431
vt 0.341136 0.828431
vt 0.355210 0.828431
vt 0.214469 0.810838
vt 0.228543 0.810838
vt 0.242617 0.810838
vt 0.256691 0.810838
vt 0.270765 0.810838
vt 0.341136 0.810838
vt 0.355210 0.810838
vt 0.683666 0.439506
vt 0.713913 0.439506
vt 0.713913 0.469753
vt 0.683666 0.469753
vt 0.713913 0.500000
vt 0.683666 0.500000
vt 0.713913 0.530247
vt 0.683666 0.530247
vt 0.713913 0.560494
vt 0.683666 0.560494
vt 0.744160 0.439506
vt 0.744160 0.469753
vt 0.653419 0.439506
vt 0.653419 0.469753
vt 0.694125 0.818115
vt 0.726841 0.818115
vt 0.726841 0.831979
vt 0.694125 0.831979
vt 0.694125 0.850831
vt 0.726841 0.850831
vt 0.726841 0.883547
vt 0.694125 0.883547
vt 0.694125 0.902400
vt 0.726841 0.902400
vt 0.726841 0.916263
vt 0.694125 0.916263
vt 0.726841 0.948979
vt 0.694125 0.948979
vt 0.759557 0.818115
vt 0.759557 0.831979
vt 0.661409 0.818115
vt 0.661409 0.831979
vt 0.694125 0.836108
vt 0.726841 0.836108
vt 0.661409 0.836108
vt 0.661409 0.850831
vt 0.726841 0.898270
vt 0.694125 0.898270
vt 0.759557 0.836108
vt 0.759557 0.850831
vt 0.726841 0.833981
vt 0.759557 0.833981
vt 0.726841 0.900397
vt 0.694125 0.900397
vt 0.661409 0.833981
vt 0.694125 0.833981
vn 0.000000 -1.000000 0.000000
vn 0.000000 -1.000000 0.000000
vn 0.000000 -1.000000 0.000000
vn 0.000000 -1.000000 0.000000
vn 0.000000 0.000001 1.000000
vn 0.000000 0.000001 1.000000
vn 0.000000 0.000001 1.000000
vn 0.000000 0.000001 1.000000
vn 0.000000 1.000000 -0.000001
vn 0.000000 1.000000 -0.000001
vn 0.000000 1.000000 -0.000001
vn 0.000000 1.000000 -0.000001
vn 0.000000 -0.000001 -1.000000
vn 0.000000 -0.000001 -1.000000
vn 0.000000 -0.000001 -1.000000
vn 0.000000 -0.000001 -1.000000
vn 1.000000 0.000000 0.000000
vn 1.000000 0.000000 0.000000
vn 1.000000 0.000000 0.000000
vn 1.000000 0.000000 0.000000
vn -1.000000 0.000000 0.000000
vn -1.000000 0.000000 0.000000
vn -1.000000 0.000000 0.000000
vn -1.000000 0.000000 0.000000
vn -0.546880 -0.752716 0.366526
vn -0.546880 -0.752716 0.366526
vn -0.546880 -0.752716 0.366526
vn -0.546880 -0.752716 0.366526
vn 0.000000 -0.930407 0.366528
vn 0.000000 -0.930407 0.366528
vn 0.000000 -0.930407 0.366528
vn 0.000000 -0.930407 0.366528
vn 0.546880 -0.752716 0.366526
vn 0.546880 -0.752716 0.366526
vn 0.546880 -0.752716 0.366526
vn 0.546880 -0.752716 0.366526
vn 0.884870 -0.287511 0.366528
vn 0.884870 -0.287511 0.366528
vn 0.884870 -0.287511 0.366528
vn 0.884870 -0.287511 0.366528
vn -0.884870 -0.287512 0.366527
vn -0.884870 -0.287512 0.366527
vn -0.884870 -0.287512 0.366527
vn -0.884870 -0.287512 0.366527
vn -0.118255 -0.363955 0.923879
vn -0.309597 -0.224935 0.923880
vn -0.309597 -0.224936 0.923880
vn -0.118256 -0.363954 0.923879
vn 0.118257 -0.363956 0.923878
vn 0.118256 -0.363956 0.923878
vn 0.309598 -0.224937 0.923879
vn 0.309598 -0.224937 0.923879
vn 0.379759 -0.123391 0.916819
vn 0.379759 -0.123391 0.916819
vn -0.379759 -0.123391 0.916819
vn -0.379759 -0.123391 0.916819
vn 0.118256 0.363955 0.923879
vn 0.309598 0.224936 0.923879
vn 0.309598 0.224936 0.923879
vn 0.118256 0.363955 0.923879
vn -0.118256 0.363955 0.923879
vn -0.118256 0.363955 0.923879
vn -0.309598 0.224937 0.923879
vn -0.309598 0.224937 0.923879
vn -0.379759 0.123391 0.916819
vn -0.379759 0.123391 0.916819
vn 0.379760 0.123391 0.916819
vn 0.379760 0.123391 0.916819
vn 0.546880 0.752716 0.366525
vn 0.546880 0.752716 0.366525
vn 0.546880 0.752716 0.366525
vn 0.546880 0.752716 0.366525
vn -0.000001 0.930408 0.366526
vn -0.000001 0.930408 0.366526
vn -0.000001 0.930408 0.366526
vn -0.000001 0.930408 0.366526
vn -0.546880 0.752716 0.366525
vn -0.546880 0.752716 0.366525
vn -0.546880 0.752716 0.366525
vn -0.546880 0.752716 0.366525
vn -0.884871 0.287512 0.366524
vn -0.884871 0.287512 0.366524
vn -0.884871 0.287512 0.366524
vn -0.884871 0.287512 0.366524
vn 0.884871 0.287512 0.366526
vn 0.884871 0.287512 0.366526
vn 0.884871 0.287512 0.366526
vn 0.884871 0.287512 0.366526
vn 0.546880 0.752716 -0.366525
vn 0.546880 0.752716 -0.366525
vn 0.546880 0.752716 -0.366525
vn 0.546880 0.752716 -0.366525
vn -0.000000 0.930408 -0.366525
vn -0.000000 0.930408 -0.366525
vn -0.000000 0.930408 -0.366525
vn -0.000000 0.930408 -0.366525
vn -0.546880 0.752716 -0.366525
vn -0.546880 0.752716 -0.366525
vn -0.546880 0.752716 -0.366525
vn -0.546880 0.752716 -0.366525
vn -0.884871 0.287512 -0.366525
vn -0.884871 0.287512 -0.366525
vn -0.884871 0.287512 -0.366525
vn -0.884871 0.287512 -0.366525
vn 0.884870 0.287512 -0.366526
vn 0.884870 0.287512 -0.366526
vn 0.884871 0.287512 -0.366526
vn 0.884870 0.287512 -0.366526
vn 0.118255 0.363952 -0.923880
vn 0.309597 0.224935 -0.923880
vn 0.309597 0.224935 -0.923880
vn 0.118256 0.363952 -0.923880
vn -0.118255 0.363952 -0.923880
vn -0.118255 0.363952 -0.923880
vn -0.309597 0.224935 -0.923880
vn -0.309597 0.224935 -0.923880
vn -0.379760 0.123392 -0.916819
vn -0.379760 0.123392 -0.916819
vn 0.379759 0.123391 -0.916819
vn 0.379759 0.123391 -0.916819
vn -0.118256 -0.363954 -0.923879
vn -0.309598 -0.224936 -0.923879
vn -0.309598 -0.224936 -0.923879
vn -0.118256 -0.363954 -0.923879
vn 0.118256 -0.363954 -0.923879
vn 0.118256 -0.363954 -0.923879
vn 0.309598 -0.224935 -0.923879
vn 0.309598 -0.224936 -0.923880
vn 0.379759 -0.123391 -0.916819
vn 0.379759 -0.123391 -0.916819
vn -0.379761 -0.123391 -0.916819
vn -0.379761 -0.123391 -0.916819
vn -0.546880 -0.752716 -0.366526
vn -0.546880 -0.752716 -0.366526
vn -0.546880 -0.752716 -0.366526
vn -0.546880 -0.752716 -0.366526
vn 0.000000 -0.930408 -0.366527
vn 0.000000 -0.930408 -0.366527
vn 0.000000 -0.930408 -0.366527
vn 0.000000 -0.930408 -0.366527
vn 0.546880 -0.752715 -0.366528
vn 0.546880 -0.752715 -0.366528
vn 0.546880 -0.752715 -0.366528
vn 0.546880 -0.752715 -0.366528
vn 0.884870 -0.287511 -0.366528
vn 0.884870 -0.287511 -0.366528
vn 0.884870 -0.287511 -0.366528
vn 0.884870 -0.287511 -0.366528
vn -0.884870 -0.287511 -0.366528
vn -0.884870 -0.287511 -0.366528
vn -0.884870 -0.287511 -0.366528
vn -0.884870 -0.287511 -0.366528
vn 0.000000 -1.000000 0.000000
vn 0.000000 -1.000000 0.000000
vn 0.000000 -1.000000 0.000000
vn 0.000000 -1.000000 0.000000
vn 0.000000 0.000001 1.000000
vn 0.000000 0.000001 1.000000
vn 0.000000 0.000001 1.000000
vn 0.000000 0.000001 1.000000
vn 0.000000 1.000000 -0.000001
vn 0.000000 1.000000 -0.000001
vn 0.000000 1.000000 -0.000001
vn 0.000000 1.000000 -0.000001
vn 0.000000 -0.000001 -1.000000
vn 0.000000 -0.000001 -1.000000
vn 0.000000 -0.000001 -1.000000
vn 0.000000 -0.000001 -1.000000
vn -1.000000 0.000000 0.000000
vn -1.000000 0.000000 0.000000
vn -1.000000 0.000000 0.000000
vn -1.000000 0.000000 0.000000
vn 1.000000 0.000000 0.000000
vn 1.000000 0.000000 0.000000
vn 1.000000 0.000000 0.000000
vn 1.000000 0.000000 0.000000
vn -0.020143 -0.998423 0.052405
vn -0.020143 -0.998423 0.052405
vn -0.020143 -0.998423 0.052405
vn -0.020143 -0.998423 0.052405
vn 0.000000 0.000000 1.000000
vn 0.000000 0.000000 1.000000
vn 0.000000 0.000000 1.000000
vn 0.000000 0.000000 1.000000
vn -0.020143 0.998423 0.052404
vn -0.020143 0.998423 0.052404
vn -0.020143 0.998423 0.052404
vn -0.020143 0.998423 0.052404
vn -0.000000 0.000000 -1.000000
vn -0.000000 0.000000 -1.000000
vn -0.000000 0.000000 -1.000000
vn -0.000000 0.000000 -1.000000
vn 0.996998 0.000000 0.077422
vn 0.996998 0.000000 0.077422
vn 0.996998 0.000000 0.077422
vn 0.996998 0.000000 0.077422
vn -0.996998 0.000000 0.077422
vn -0.996998 0.000000 0.077422
vn -0.996998 0.000000 0.077422
vn -0.996998 0.000000 0.077422
vn -0.020146 -0.998573 -0.049451
vn -0.020146 -0.998573 -0.049451
vn -0.020146 -0.998573 -0.049451
vn -0.020146 -0.998573 -0.049451
vn -0.997327 0.000000 -0.073072
vn -0.997327 0.000000 -0.073072
vn -0.997327 0.000000 -0.073072
vn -0.997327 0.000000 -0.073072
vn -0.020146 0.998573 -0.049452
vn -0.020146 0.998573 -0.049452
vn -0.020146 0.998573 -0.049452
vn -0.020146 0.998573 -0.049452
vn 0.997327 0.000000 -0.073072
vn 0.997327 0.000000 -0.073072
vn 0.997327 0.000000 -0.073072
vn 0.997327 0.000000 -0.073072
vn 0.660175 0.000000 -0.751112
vn 0.660175 0.000000 -0.751112
vn 0.660175 0.000000 -0.751112
vn 0.660175 0.000000 -0.751112
vn -0.015990 0.792600 -0.609533
vn -0.015990 0.792600 -0.609533
vn -0.015990 0.792600 -0.609533
vn -0.015990 0.792600 -0.609533
vn -0.660175 0.000000 -0.751112
vn -0.660175 0.000000 -0.751112
vn -0.660175 0.000000 -0.751112
vn -0.660175 0.000000 -0.751112
vn -0.015990 -0.792598 -0.609535
vn -0.015990 -0.792598 -0.609535
vn -0.015990 -0.792598 -0.609535
vn -0.015990 -0.792598 -0.609535
vn -0.630411 -0.000000 0.776262
vn -0.630411 -0.000000 0.776262
vn -0.630411 -0.000000 0.776262
vn -0.630411 -0.000000 0.776262
vn -0.015504 0.768514 0.639646
vn -0.015504 0.768514 0.639646
vn -0.015504 0.768514 0.639646
vn -0.015504 0.768514 0.639646
vn 0.630411 -0.000000 0.776262
vn 0.630411 -0.000000 0.776262
vn 0.630411 -0.000000 0.776262
vn 0.630411 -0.000000 0.776262
vn -0.015505 -0.768521 0.639637
vn -0.015505 -0.768521 0.639637
vn -0.015505 -0.768521 0.639637
vn -0.015505 -0.768521 0.639637
g briefcase
f 1/1/1 2/2/2 4/4/3 3/3/4
f 3/3/5 4/4/6 6/6/7 5/5/8
f 5/5/9 6/6/10 8/8/11 7/7/12
f 7/7/13 8/8/14 2/10/15 1/9/16
f 2/2/17 8/11/18 6/12/19 4/4/20
f 7/13/21 1/1/22 3/3/23 5/14/24
f 10/15/25 9/16/26 15/17/27 16/18/28
f 11/19/29 10/15/30 16/18/31 17/20/32
f 12/21/33 11/19/34 17/20/35 18/22/36
f 13/23/37 12/21/38 18/22/39 19/24/40
f 9/25/41 14/26/42 20/27/43 15/28/44
f 16/18/45 15/17/46 21/29/47 22/30/48
f 17/20/49 16/18/45 22/30/48 23/31/50
f 18/22/51 17/20/49 23/31/50 24/32/52
f 19/24/53 18/22/51 24/32/52 25/33/54
f 15/28/46 20/27/55 26/34/56 21/35/47
f 22/30/57 21/29/58 27/36/59 28/37/60
f 23/31/61 22/30/57 28/37/60 29/38/62
f 24/32/63 23/31/61 29/38/62 30/39/64
f 25/33/65 24/32/63 30/39/64 31/40/66
f 21/35/58 26/34/67 32/41/68 27/42/59
f 28/37/69 27/36/70 33/43/71 34/44/72
f 29/38/73 28/37/74 34/44/75 35/45/76
f 30/39/77 29/38/78 35/45/79 36/46/80
f 31/40/81 30/39/82 36/46/83 37/47/84
f 27/42/85 32/41/86 38/48/87 33/49/88
f 34/44/89 33/43/90 39/50/91 40/51/92
f 35/45/93 34/44/94 40/51/95 41/52/96
f 36/46/97 35/45/98 41/52/99 42/53/100
f 37/47/101 36/46/102 42/53/103 43/54/104
f 33/49/105 38/48/106 44/55/107 39/56/108
f 40/51/109 39/50/110 45/57/111 46/58/112
f 41/52/113 40/51/109 46/58/112 47/59/114
f 42/53/115 41/52/113 47/59/114 48/60/116
f 43/54/117 42/53/115 48/60/116 49/61/118
f 39/56/110 44/55/119 50/62/120 45/63/111
f 46/58/121 45/57/122 51/64/123 52/65/124
f 47/59/125 46/58/121 52/65/124 53/66/126
f 48/60/127 47/59/125 53/66/126 54/67/128
f 49/61/129 48/60/127 54/67/128 55/68/130
f 45/63/122 50/62/131 56/69/132 51/70/123
f 52/65/133 51/64/134 9/71/135 10/72/136
f 53/66/137 52/65/138 10/72/139 11/73/140
f 54/67/141 53/66/142 11/73/143 12/74/144
f 55/68/145 54/67/146 12/74/147 13/75/148
f 51/70/149 56/69/150 14/76/151 9/77/152
f 57/78/153 59/81/154 60/80/155 58/79/156
f 59/81/157 61/83/158 62/82/159 60/80/160
f 61/83/161 63/85/162 64/84/163 62/82/164
f 63/85/165 57/87/166 58/86/167 64/84/168
f 58/79/169 60/80/170 62/89/171 64/88/172
f 63/90/173 61/91/174 59/81/175 57/78/176
f 65/92/177 66/93/178 84/94/179 81/95/180
f 67/96/181 68/97/182 70/98/183 69/99/184
f 82/100/185 83/101/186 72/102/187 71/103/188
f 71/103/189 72/102/190 66/104/191 65/105/192
f 66/93/193 72/106/194 83/107/195 84/94/196
f 71/108/197 65/92/198 81/95/199 82/109/200
f 80/110/201 77/111/202 68/97/203 67/96/204
f 79/112/205 80/110/206 67/96/207 69/113/208
f 69/99/209 70/98/210 78/114/211 79/115/212
f 77/111/213 78/116/214 70/117/215 68/97/216
f 73/118/217 76/119/218 78/116/219 77/111/220
f 79/115/221 78/114/222 76/120/223 75/121/224
f 75/122/225 74/123/226 80/110/227 79/112/228
f 74/123/229 73/118/230 77/111/231 80/110/232
f 82/109/233 81/95/234 74/123/235 75/122/236
f 75/121/237 76/120/238 83/101/239 82/100/240
f 84/94/241 83/107/242 76/119/243 73/118/244
f 81/95/245 84/94/246 73/118/247 74/123/248
