# This file uses centimeters as units for non-parametric coordinates.

g default
v 0.830345 -0.021908 -0.442257
v 0.948579 -0.021908 -0.442257
v 0.862939 0.372332 -0.402163
v 0.658257 0.372332 -0.402163
v 0.862939 0.372332 -0.197481
v 0.658257 0.372332 -0.197481
v 0.948579 -0.021908 -0.324022
v 0.830345 -0.021908 -0.324022
v -0.830345 -0.021908 -0.442257
v -0.948579 -0.021908 -0.442257
v -0.862939 0.372332 -0.402163
v -0.658257 0.372332 -0.402163
v -0.862939 0.372332 -0.197481
v -0.658257 0.372332 -0.197481
v -0.948579 -0.021908 -0.324022
v -0.830345 -0.021908 -0.324022
v -0.830345 -0.021908 0.442257
v -0.948579 -0.021908 0.442257
v -0.862939 0.372332 0.402163
v -0.658257 0.372332 0.402163
v -0.862939 0.372332 0.197481
v -0.658257 0.372332 0.197481
v -0.948579 -0.021908 0.324022
v -0.830345 -0.021908 0.324022
v 0.830345 -0.021908 0.442257
v 0.948579 -0.021908 0.442257
v 0.862939 0.372332 0.402163
v 0.658257 0.372332 0.402163
v 0.862939 0.372332 0.197481
v 0.658257 0.372332 0.197481
v 0.948579 -0.021908 0.324022
v 0.830345 -0.021908 0.324022
v 0.058915 0.662116 -0.426065
v 0.058915 0.662116 -0.605571
v 0.027053 1.090109 -0.426065
v 0.027053 1.090109 -0.605571
v -1.339353 1.090109 -0.426065
v -1.339353 1.090109 -0.605571
v -1.371216 0.662116 -0.426065
v -1.371216 0.662116 -0.605571
v -1.294497 0.706527 -0.671096
v -0.017803 0.706527 -0.671096
v -1.294497 1.062321 -0.671096
v -0.017803 1.062321 -0.671096
v -1.294497 0.706527 -0.360539
v -0.017803 0.706527 -0.360539
v -0.017803 1.062321 -0.360539
v -1.294497 1.062321 -0.360539
v -0.633400 1.106732 -0.426065
v -0.635841 1.062321 -0.360539
v -0.635841 0.706527 -0.360539
v -0.633400 0.662116 -0.426065
v -0.633400 0.662116 -0.605571
v -0.635841 0.706527 -0.671096
v -0.635841 1.062321 -0.671096
v -0.633400 1.106732 -0.605571
v 0.058915 0.866238 -0.426065
v -0.017803 0.869871 -0.360539
v -0.635841 0.869871 -0.360539
v -1.294497 0.869871 -0.360539
v -1.371216 0.866238 -0.426065
v -1.371216 0.866238 -0.605571
v -1.294497 0.869871 -0.671096
v -0.635841 0.869871 -0.671096
v -0.017803 0.869871 -0.671096
v 0.058915 0.866238 -0.605571
v -1.248598 0.366184 0.478755
v 1.248598 0.366184 0.478755
v -1.248598 0.632550 0.521977
v 1.248598 0.632550 0.521977
v -1.248598 0.677244 -0.500000
v 1.248598 0.677244 -0.500000
v -1.248598 0.407394 -0.500000
v 1.248598 0.407394 -0.500000
v -1.291909 0.397964 0.541367
v 1.291909 0.397964 0.541367
v 1.291909 0.582602 0.571327
v -1.291909 0.582602 0.571327
v -1.291909 0.635845 -0.556713
v 1.291909 0.635845 -0.556713
v 1.291909 0.448793 -0.556713
v -1.291909 0.448793 -0.556713
v -1.402087 0.662116 0.342411
v -1.157982 0.662116 0.342411
v -1.402087 1.106732 0.342411
v -1.157982 1.106732 0.342411
v -1.402087 1.106732 -0.342411
v -1.157982 1.106732 -0.342411
v -1.402087 0.662116 -0.342411
v -1.157982 0.662116 -0.342411
v -1.356014 0.617132 0.387395
v -1.204055 0.617132 0.387395
v -1.204055 1.151715 0.387395
v -1.356014 1.151715 0.387395
v -1.204055 1.151715 -0.387395
v -1.356014 1.151715 -0.387395
v -1.204055 0.617132 -0.387395
v -1.356014 0.617132 -0.387395
vt 0.114915 0.830830
vt 0.145973 0.830830
vt 0.145973 0.861888
vt 0.114915 0.861888
vt 0.145973 0.892946
vt 0.114915 0.892946
vt 0.145973 0.924004
vt 0.114915 0.924004
vt 0.145973 0.955062
vt 0.114915 0.955062
vt 0.177030 0.830830
vt 0.177030 0.861888
vt 0.083857 0.830830
vt 0.083857 0.861888
vt 0.114915 0.830830
vt 0.145973 0.830830
vt 0.145973 0.861888
vt 0.114915 0.861888
vt 0.145973 0.892946
vt 0.114915 0.892946
vt 0.145973 0.924004
vt 0.114915 0.924004
vt 0.145973 0.955062
vt 0.114915 0.955062
vt 0.177030 0.830830
vt 0.177030 0.861888
vt 0.083857 0.830830
vt 0.083857 0.861888
vt 0.114915 0.830830
vt 0.145973 0.830830
vt 0.145973 0.861888
vt 0.114915 0.861888
vt 0.145973 0.892946
vt 0.114915 0.892946
vt 0.145973 0.924004
vt 0.114915 0.924004
vt 0.145973 0.955062
vt 0.114915 0.955062
vt 0.177030 0.830830
vt 0.177030 0.861888
vt 0.083857 0.830830
vt 0.083857 0.861888
vt 0.114915 0.830830
vt 0.145973 0.830830
vt 0.145973 0.861888
vt 0.114915 0.861888
vt 0.145973 0.892946
vt 0.114915 0.892946
vt 0.145973 0.924004
vt 0.114915 0.924004
vt 0.145973 0.955062
vt 0.114915 0.955062
vt 0.177030 0.830830
vt 0.177030 0.861888
vt 0.083857 0.830830
vt 0.083857 0.861888
vt 0.688949 0.621936
vt 0.727387 0.621936
vt 0.727387 0.639583
vt 0.688949 0.639583
vt 0.688949 0.660374
vt 0.727387 0.660374
vt 0.727387 0.678982
vt 0.688949 0.678982
vt 0.688949 0.719603
vt 0.727387 0.719603
vt 0.727387 0.737250
vt 0.688949 0.737250
vt 0.688949 0.757080
vt 0.727387 0.757080
vt 0.727387 0.775688
vt 0.688949 0.775688
vt 0.727387 0.621936
vt 0.745994 0.621936
vt 0.745994 0.639583
vt 0.727387 0.639583
vt 0.670341 0.621936
vt 0.688949 0.621936
vt 0.688949 0.639583
vt 0.670341 0.639583
vt 0.745994 0.621936
vt 0.765825 0.621936
vt 0.765825 0.639583
vt 0.765825 0.639583
vt 0.765825 0.621936
vt 0.745994 0.660374
vt 0.727387 0.660374
vt 0.745994 0.660374
vt 0.670341 0.621936
vt 0.670341 0.660374
vt 0.670341 0.660374
vt 0.688949 0.660374
vt 0.650511 0.639583
vt 0.650511 0.621936
vt 0.650511 0.621936
vt 0.650511 0.639583
vt 0.650511 0.660374
vt 0.650511 0.660374
vt 0.765825 0.660374
vt 0.765825 0.660374
vt 0.727387 0.698812
vt 0.688949 0.698812
vt 0.886652 0.816312
vt 0.922630 0.816312
vt 0.922630 0.852290
vt 0.886652 0.852290
vt 0.886652 0.852290
vt 0.922630 0.852290
vt 0.922630 0.888268
vt 0.886652 0.888268
vt 0.886652 0.888268
vt 0.922630 0.888268
vt 0.922630 0.924246
vt 0.886652 0.924246
vt 0.886652 0.924246
vt 0.922630 0.924246
vt 0.922630 0.960224
vt 0.886652 0.960224
vt 0.958608 0.816312
vt 0.958608 0.852290
vt 0.850674 0.816312
vt 0.850674 0.852290
vt 0.886652 0.816312
vt 0.922630 0.816312
vt 0.958608 0.816312
vt 0.958608 0.852290
vt 0.850674 0.816312
vt 0.850674 0.852290
vt 0.698668 0.637423
vt 0.722346 0.637423
vt 0.722346 0.661100
vt 0.698668 0.661100
vt 0.722346 0.684778
vt 0.698668 0.684778
vt 0.722346 0.708456
vt 0.698668 0.708456
vt 0.722346 0.732134
vt 0.698668 0.732134
vt 0.722346 0.637423
vt 0.746023 0.637423
vt 0.746023 0.661100
vt 0.722346 0.661100
vt 0.674990 0.637423
vt 0.698668 0.637423
vt 0.698668 0.661100
vt 0.674990 0.661100
vt 0.722346 0.684778
vt 0.698668 0.684778
vt 0.722346 0.708456
vt 0.698668 0.708456
vt 0.722346 0.732134
vt 0.698668 0.732134
vn 0.000000 0.101178 -0.994868
vn 0.000000 0.101178 -0.994868
vn 0.000000 0.101178 -0.994868
vn 0.000000 0.101178 -0.994868
vn 0.000000 1.000000 0.000000
vn 0.000000 1.000000 0.000000
vn 0.000000 1.000000 0.000000
vn 0.000000 1.000000 0.000000
vn 0.000000 -0.305617 0.952154
vn 0.000000 -0.305617 0.952154
vn 0.000000 -0.305617 0.952154
vn 0.000000 -0.305617 0.952154
vn 0.000000 -1.000000 0.000000
vn 0.000000 -1.000000 0.000000
vn 0.000000 -1.000000 0.000000
vn 0.000000 -1.000000 0.000000
vn 0.977210 0.212277 0.000000
vn 0.977210 0.212277 0.000000
vn 0.977210 0.212277 0.000000
vn 0.977210 0.212277 0.000000
vn -0.916492 -0.400053 0.000000
vn -0.916492 -0.400053 0.000000
vn -0.916492 -0.400053 0.000000
vn -0.916492 -0.400053 0.000000
vn 0.000000 0.101178 -0.994868
vn 0.000000 0.101178 -0.994868
vn 0.000000 0.101178 -0.994868
vn 0.000000 0.101178 -0.994868
vn 0.000000 1.000000 0.000000
vn 0.000000 1.000000 0.000000
vn 0.000000 1.000000 0.000000
vn 0.000000 1.000000 0.000000
vn 0.000000 -0.305617 0.952154
vn 0.000000 -0.305617 0.952154
vn 0.000000 -0.305617 0.952154
vn 0.000000 -0.305617 0.952154
vn 0.000000 -1.000000 0.000000
vn 0.000000 -1.000000 0.000000
vn 0.000000 -1.000000 0.000000
vn 0.000000 -1.000000 0.000000
vn -0.977210 0.212277 0.000000
vn -0.977210 0.212277 0.000000
vn -0.977210 0.212277 0.000000
vn -0.977210 0.212277 0.000000
vn 0.916492 -0.400053 0.000000
vn 0.916492 -0.400053 0.000000
vn 0.916492 -0.400053 0.000000
vn 0.916492 -0.400053 0.000000
vn 0.000000 0.101178 0.994868
vn 0.000000 0.101178 0.994868
vn 0.000000 0.101178 0.994868
vn 0.000000 0.101178 0.994868
vn 0.000000 1.000000 0.000000
vn 0.000000 1.000000 0.000000
vn 0.000000 1.000000 0.000000
vn 0.000000 1.000000 0.000000
vn 0.000000 -0.305617 -0.952154
vn 0.000000 -0.305617 -0.952154
vn 0.000000 -0.305617 -0.952154
vn 0.000000 -0.305617 -0.952154
vn 0.000000 -1.000000 0.000000
vn 0.000000 -1.000000 0.000000
vn 0.000000 -1.000000 0.000000
vn 0.000000 -1.000000 0.000000
vn -0.977210 0.212277 0.000000
vn -0.977210 0.212277 0.000000
vn -0.977210 0.212277 0.000000
vn -0.977210 0.212277 0.000000
vn 0.916492 -0.400053 0.000000
vn 0.916492 -0.400053 0.000000
vn 0.916492 -0.400053 0.000000
vn 0.916492 -0.400053 0.000000
vn 0.000000 0.101178 0.994868
vn 0.000000 0.101178 0.994868
vn 0.000000 0.101178 0.994868
vn 0.000000 0.101178 0.994868
vn 0.000000 1.000000 0.000000
vn 0.000000 1.000000 0.000000
vn 0.000000 1.000000 0.000000
vn 0.000000 1.000000 0.000000
vn 0.000000 -0.305617 -0.952154
vn 0.000000 -0.305617 -0.952154
vn 0.000000 -0.305617 -0.952154
vn 0.000000 -0.305617 -0.952154
vn 0.000000 -1.000000 0.000000
vn 0.000000 -1.000000 0.000000
vn 0.000000 -1.000000 0.000000
vn 0.000000 -1.000000 0.000000
vn 0.977210 0.212277 0.000000
vn 0.977210 0.212277 0.000000
vn 0.977210 0.212277 0.000000
vn 0.977210 0.212277 0.000000
vn -0.916492 -0.400053 0.000000
vn -0.916492 -0.400053 0.000000
vn -0.916492 -0.400053 0.000000
vn -0.916492 -0.400053 0.000000
vn 0.974979 0.000000 0.222299
vn 0.974978 0.000000 -0.222300
vn 0.966577 0.063477 -0.248393
vn 0.966577 0.063477 0.248392
vn 0.022773 0.994423 0.102978
vn 0.022773 0.994423 -0.102978
vn 0.000063 0.989808 -0.142411
vn 0.000063 0.989808 0.142411
vn -0.966577 0.063477 0.248393
vn -0.966577 0.063477 -0.248393
vn -0.974978 0.000000 -0.222300
vn -0.974978 0.000000 0.222300
vn 0.000000 -0.985207 0.171367
vn 0.000000 -0.985207 -0.171367
vn 0.000000 -0.994887 -0.100997
vn 0.000000 -0.994887 0.100997
vn 0.000000 0.000000 -1.000000
vn 0.000000 0.000000 -1.000000
vn 0.000000 0.000000 -1.000000
vn 0.000000 0.000000 -1.000000
vn 0.000000 0.000000 1.000000
vn 0.000000 0.000000 1.000000
vn 0.000000 0.000000 1.000000
vn 0.000000 0.000000 1.000000
vn 0.000000 -0.827783 -0.561048
vn 0.000000 -0.827783 -0.561048
vn -0.690555 0.028675 -0.722711
vn -0.649456 0.000000 -0.760399
vn 0.011364 0.874075 -0.485657
vn -0.000216 0.874278 -0.485425
vn 0.649457 0.000000 -0.760399
vn 0.690556 0.028675 -0.722710
vn 0.000000 -0.827783 0.561048
vn 0.000000 -0.827783 0.561048
vn 0.690556 0.028675 0.722710
vn 0.649457 0.000000 0.760399
vn -0.000216 0.874278 0.485425
vn 0.011364 0.874076 0.485656
vn -0.649456 0.000000 0.760399
vn -0.690556 0.028675 0.722711
vn -0.021313 0.994487 0.102672
vn -0.010651 0.874361 0.485160
vn 0.000000 0.000000 1.000000
vn 0.000000 0.000000 1.000000
vn 0.000000 -0.994887 0.100997
vn 0.000000 -0.827783 0.561048
vn 0.000000 -0.994887 -0.100997
vn 0.000000 -0.827783 -0.561048
vn 0.000000 0.000000 -1.000000
vn 0.000000 0.000000 -1.000000
vn -0.021313 0.994487 -0.102672
vn -0.010651 0.874360 -0.485160
vn 0.971373 0.124100 0.202566
vn 0.726847 0.055628 0.684543
vn 0.000000 0.000000 1.000000
vn 0.000000 0.000000 1.000000
vn 0.000000 0.000000 1.000000
vn -0.971373 0.124100 0.202566
vn -0.726847 0.055628 0.684543
vn -0.971373 0.124100 -0.202567
vn -0.726846 0.055628 -0.684544
vn 0.000000 0.000000 -1.000000
vn 0.000000 0.000000 -1.000000
vn 0.000000 0.000000 -1.000000
vn 0.971373 0.124100 -0.202566
vn 0.726847 0.055628 -0.684543
vn 0.000000 -0.322722 0.946494
vn 0.000000 -0.322722 0.946494
vn 0.000000 0.006882 0.999976
vn 0.000000 0.006882 0.999976
vn 0.000000 0.999045 0.043691
vn 0.000000 0.999045 0.043691
vn 0.000000 0.999045 0.043691
vn 0.000000 0.999045 0.043691
vn 0.000000 0.166957 -0.985964
vn 0.000000 0.166957 -0.985964
vn 0.000000 -0.166957 -0.985964
vn 0.000000 -0.166957 -0.985964
vn 0.000000 -0.999115 -0.042067
vn 0.000000 -0.999115 -0.042067
vn 0.000000 -0.999115 -0.042067
vn 0.000000 -0.999115 -0.042067
vn 0.996168 -0.087370 -0.003872
vn 0.995401 -0.095699 -0.004241
vn 0.993991 0.109345 0.004981
vn 0.992847 0.119268 0.005433
vn -0.995401 -0.095699 -0.004241
vn -0.996168 -0.087370 -0.003872
vn -0.992847 0.119268 0.005433
vn -0.993991 0.109345 0.004981
vn 0.000000 -0.891707 0.452612
vn 0.000000 -0.891707 0.452612
vn 0.000000 0.702839 0.711349
vn 0.000000 0.702839 0.711349
vn 0.000000 0.807701 -0.589592
vn 0.000000 0.807701 -0.589592
vn 0.000000 -0.807701 -0.589592
vn 0.000000 -0.807701 -0.589592
vn 0.646314 -0.762323 -0.033784
vn 0.646314 -0.762323 -0.033784
vn 0.726522 0.686431 0.031268
vn 0.726522 0.686431 0.031268
vn -0.646314 -0.762323 -0.033784
vn -0.646314 -0.762323 -0.033784
vn -0.726522 0.686432 0.031268
vn -0.726522 0.686432 0.031268
vn 0.000000 0.000000 1.000000
vn 0.000000 0.000000 1.000000
vn 0.000000 0.000000 1.000000
vn 0.000000 0.000000 1.000000
vn 0.000000 1.000000 0.000000
vn 0.000000 1.000000 0.000000
vn 0.000000 1.000000 0.000000
vn 0.000000 1.000000 0.000000
vn 0.000000 0.000000 -1.000000
vn 0.000000 0.000000 -1.000000
vn 0.000000 0.000000 -1.000000
vn 0.000000 0.000000 -1.000000
vn 0.000000 -1.000000 0.000000
vn 0.000000 -1.000000 0.000000
vn 0.000000 -1.000000 0.000000
vn 0.000000 -1.000000 0.000000
vn 1.000000 0.000000 0.000000
vn 1.000000 0.000000 0.000000
vn 1.000000 0.000000 0.000000
vn 1.000000 0.000000 0.000000
vn -1.000000 0.000000 0.000000
vn -1.000000 0.000000 0.000000
vn -1.000000 0.000000 0.000000
vn -1.000000 0.000000 0.000000
vn 0.698600 0.000000 0.715512
vn 0.698600 0.000000 0.715512
vn 0.698600 0.000000 0.715512
vn 0.698600 0.000000 0.715512
vn -0.698600 0.000000 0.715513
vn -0.698600 0.000000 0.715513
vn -0.698600 0.000000 0.715513
vn -0.698600 0.000000 0.715513
vn 0.698600 0.715513 0.000000
vn 0.698600 0.715513 0.000000
vn 0.698600 0.715513 0.000000
vn 0.698600 0.715513 0.000000
vn -0.698600 0.715513 0.000000
vn -0.698600 0.715513 0.000000
vn -0.698600 0.715513 0.000000
vn -0.698600 0.715513 0.000000
vn 0.698600 0.000000 -0.715513
vn 0.698600 0.000000 -0.715513
vn 0.698600 0.000000 -0.715513
vn 0.698600 0.000000 -0.715513
vn -0.698600 0.000000 -0.715512
vn -0.698600 0.000000 -0.715512
vn -0.698600 0.000000 -0.715512
vn -0.698600 0.000000 -0.715512
vn 0.698600 -0.715512 0.000000
vn 0.698600 -0.715512 0.000000
vn 0.698600 -0.715512 0.000000
vn 0.698600 -0.715512 0.000000
vn -0.698600 -0.715512 0.000000
vn -0.698600 -0.715512 0.000000
vn -0.698600 -0.715512 0.000000
vn -0.698600 -0.715512 0.000000
g couch
f 1/1/1 4/4/2 3/3/3 2/2/4
f 4/4/5 6/6/6 5/5/7 3/3/8
f 6/6/9 8/8/10 7/7/11 5/5/12
f 8/8/13 1/10/14 2/9/15 7/7/16
f 2/2/17 3/3/18 5/12/19 7/11/20
f 8/13/21 6/14/22 4/4/23 1/1/24
f 9/15/25 10/16/26 11/17/27 12/18/28
f 12/18/29 11/17/30 13/19/31 14/20/32
f 14/20/33 13/19/34 15/21/35 16/22/36
f 16/22/37 15/21/38 10/23/39 9/24/40
f 10/16/41 15/25/42 13/26/43 11/17/44
f 16/27/45 9/15/46 12/18/47 14/28/48
f 17/29/49 20/32/50 19/31/51 18/30/52
f 20/32/53 22/34/54 21/33/55 19/31/56
f 22/34/57 24/36/58 23/35/59 21/33/60
f 24/36/61 17/38/62 18/37/63 23/35/64
f 18/30/65 19/31/66 21/40/67 23/39/68
f 24/41/69 22/42/70 20/32/71 17/29/72
f 25/43/73 26/44/74 27/45/75 28/46/76
f 28/46/77 27/45/78 29/47/79 30/48/80
f 30/48/81 29/47/82 31/49/83 32/50/84
f 32/50/85 31/49/86 26/51/87 25/52/88
f 26/44/89 31/53/90 29/54/91 27/45/92
f 32/55/93 25/43/94 28/46/95 30/56/96
f 33/57/97 34/58/98 66/59/99 57/60/100
f 35/61/101 36/62/102 56/63/103 49/64/104
f 61/65/105 62/66/106 40/67/107 39/68/108
f 52/69/109 53/70/110 34/71/111 33/72/112
f 42/73/113 54/74/114 64/75/115 65/76/116
f 51/77/117 46/78/118 58/79/119 59/80/120
f 34/58/111 53/81/110 54/74/121 42/73/122
f 40/82/107 62/83/106 63/84/123 41/85/124
f 56/86/103 36/62/102 44/87/125 55/88/126
f 66/59/99 34/58/98 42/73/127 65/76/128
f 52/89/109 33/57/112 46/78/129 51/77/130
f 33/57/97 57/60/100 58/79/131 46/78/132
f 35/61/101 49/90/104 50/91/133 47/92/134
f 61/93/105 39/94/108 45/95/135 60/96/136
f 49/90/104 37/97/137 48/98/138 50/91/133
f 45/95/139 51/77/117 59/80/120 60/96/140
f 39/94/141 52/89/109 51/77/130 45/95/142
f 39/68/141 40/67/143 53/70/110 52/69/109
f 54/74/121 53/81/110 40/82/143 41/85/144
f 64/75/115 54/74/114 41/85/145 63/84/146
f 38/99/147 56/86/103 55/88/126 43/100/148
f 49/64/104 56/63/103 38/101/147 37/102/137
f 57/60/100 35/61/149 47/92/150 58/79/131
f 59/80/120 58/79/119 47/92/151 50/91/152
f 60/96/140 59/80/120 50/91/152 48/98/153
f 37/97/154 61/93/105 60/96/136 48/98/155
f 37/102/154 38/101/156 62/66/106 61/65/105
f 63/84/123 62/83/106 38/99/156 43/100/157
f 55/88/158 64/75/115 63/84/146 43/100/159
f 65/76/116 64/75/115 55/88/158 44/87/160
f 36/62/161 66/59/99 65/76/128 44/87/162
f 57/60/100 66/59/99 36/62/161 35/61/149
f 75/103/163 76/104/164 77/105/165 78/106/166
f 69/107/167 70/108/168 72/109/169 71/110/170
f 79/111/171 80/112/172 81/113/173 82/114/174
f 73/115/175 74/116/176 68/117/177 67/118/178
f 76/104/179 81/119/180 80/120/181 77/105/182
f 82/121/183 75/103/184 78/106/185 79/122/186
f 67/123/187 68/124/188 76/104/164 75/103/163
f 70/108/189 69/107/190 78/106/166 77/105/165
f 71/110/191 72/109/192 80/112/172 79/111/171
f 74/116/193 73/115/194 82/114/174 81/113/173
f 68/124/195 74/125/196 81/119/180 76/104/179
f 72/126/197 70/108/198 77/105/182 80/120/181
f 73/127/199 67/123/200 75/103/184 82/121/183
f 69/107/201 71/128/202 79/122/186 78/106/185
f 91/129/203 92/130/204 93/131/205 94/132/206
f 94/132/207 93/131/208 95/133/209 96/134/210
f 96/134/211 95/133/212 97/135/213 98/136/214
f 98/136/215 97/135/216 92/137/217 91/138/218
f 84/139/219 90/140/220 88/141/221 86/142/222
f 89/143/223 83/144/224 85/145/225 87/146/226
f 84/139/227 86/142/228 93/131/229 92/130/230
f 85/145/231 83/144/232 91/129/233 94/132/234
f 86/142/235 88/147/236 95/133/237 93/131/238
f 87/148/239 85/145/240 94/132/241 96/134/242
f 88/147/243 90/149/244 97/135/245 95/133/246
f 89/150/247 87/148/248 96/134/249 98/136/250
f 90/149/251 84/151/252 92/137/253 97/135/254
f 83/152/255 89/150/256 98/136/257 91/138/258
