# This file uses centimeters as units for non-parametric coordinates.

g default
v -0.667208 0.064960 0.092153
v -0.667208 2.359201 0.092153
v -0.667208 2.359201 -0.092153
v -0.667208 0.064960 -0.092153
v -0.023854 2.359201 0.092153
v -0.023854 2.359201 -0.092153
v -0.023854 0.064960 -0.092153
v -0.023854 0.064960 0.092153
vt 0.103597 0.662631
vt 0.086838 0.662631
vt 0.086838 0.629113
vt 0.103597 0.629113
vt 0.086838 0.696149
vt 0.103597 0.696149
vt 0.086838 0.729667
vt 0.103597 0.729667
vt 0.086838 0.763185
vt 0.103597 0.763185
vt 0.053320 0.629113
vt 0.053320 0.662631
vn 0.000000 0.000000 1.000000
vn 0.000000 0.000000 1.000000
vn 0.000000 0.000000 1.000000
vn 0.000000 0.000000 1.000000
vn 0.000000 1.000000 0.000000
vn 0.000000 1.000000 0.000000
vn 0.000000 1.000000 0.000000
vn 0.000000 1.000000 0.000000
vn 0.000000 0.000000 -1.000000
vn 0.000000 0.000000 -1.000000
vn 0.000000 0.000000 -1.000000
vn 0.000000 0.000000 -1.000000
vn 0.000000 -1.000000 0.000000
vn 0.000000 -1.000000 0.000000
vn 0.000000 -1.000000 0.000000
vn 0.000000 -1.000000 0.000000
vn -1.000000 0.000000 0.000000
vn -1.000000 0.000000 0.000000
vn -1.000000 0.000000 0.000000
vn -1.000000 0.000000 0.000000
vn 1.000000 0.000000 0.000000
vn 1.000000 0.000000 0.000000
vn 1.000000 0.000000 0.000000
vn 1.000000 0.000000 0.000000
g polySurface1 elevatorDoor
f 5/1/1 2/2/2 1/3/3 8/4/4
f 3/5/5 2/2/6 5/1/7 6/6/8
f 4/7/9 3/5/10 6/6/11 7/8/12
f 1/9/13 4/7/14 7/8/15 8/10/16
f 4/11/17 1/3/18 2/2/19 3/12/20
f 6/6/21 5/1/22 8/10/23 7/8/24
g default
v 0.667208 0.064960 -0.092153
v 0.667208 2.359201 -0.092153
v 0.667208 2.359201 0.092153
v 0.667208 0.064960 0.092153
v 0.023854 2.359201 -0.092153
v 0.023854 2.359201 0.092153
v 0.023854 0.064960 0.092153
v 0.023854 0.064960 -0.092153
vt 0.178230 0.664167
vt 0.157781 0.664167
vt 0.157781 0.623269
vt 0.178230 0.623269
vt 0.157781 0.705065
vt 0.178230 0.705065
vt 0.157781 0.745963
vt 0.178230 0.745963
vt 0.157781 0.786861
vt 0.178230 0.786861
vt 0.116883 0.623269
vt 0.116883 0.664167
vn 0.000000 0.000000 -1.000000
vn 0.000000 0.000000 -1.000000
vn 0.000000 0.000000 -1.000000
vn 0.000000 0.000000 -1.000000
vn 0.000000 1.000000 -0.000000
vn 0.000000 1.000000 -0.000000
vn 0.000000 1.000000 -0.000000
vn 0.000000 1.000000 -0.000000
vn -0.000000 0.000000 1.000000
vn -0.000000 0.000000 1.000000
vn -0.000000 0.000000 1.000000
vn -0.000000 0.000000 1.000000
vn 0.000000 -1.000000 0.000000
vn 0.000000 -1.000000 0.000000
vn 0.000000 -1.000000 0.000000
vn 0.000000 -1.000000 0.000000
vn 1.000000 0.000000 0.000000
vn 1.000000 0.000000 0.000000
vn 1.000000 0.000000 0.000000
vn 1.000000 0.000000 0.000000
vn -1.000000 0.000000 -0.000000
vn -1.000000 0.000000 -0.000000
vn -1.000000 0.000000 -0.000000
vn -1.000000 0.000000 -0.000000
g elevatorDoor polySurface7
f 13/13/25 10/14/26 9/15/27 16/16/28
f 11/17/29 10/14/30 13/13/31 14/18/32
f 12/19/33 11/17/34 14/18/35 15/20/36
f 9/21/37 12/19/38 15/20/39 16/22/40
f 12/23/41 9/15/42 10/14/43 11/24/44
f 14/18/45 13/13/46 16/22/47 15/20/48
g default
v -0.111551 2.579904 0.084140
v -0.051381 2.615643 0.084140
v -0.231889 2.829837 0.084140
v -0.213281 2.840890 0.084140
v -0.231889 2.829837 0.024241
v -0.213281 2.840890 0.024241
v -0.111551 2.579904 0.024241
v -0.051381 2.615643 0.024241
v 0.667208 0.064961 -0.092153
v 0.667208 2.359201 -0.092153
v 0.667208 2.359201 0.241819
v 0.667208 0.064961 0.241819
v 0.000000 2.359201 -0.092153
v 0.000000 2.359201 0.241819
v 0.667208 2.474574 -0.092153
v 0.667208 2.474574 0.241820
v 0.000000 2.474574 -0.092153
v 0.000000 2.474574 0.241820
v 0.782581 0.064960 0.241820
v 0.782581 0.064960 -0.092153
v 0.782581 2.359201 -0.092153
v 0.782581 2.359201 0.241820
v 0.782581 2.474574 -0.092153
v 0.782581 2.474574 0.241820
v -0.667208 0.064961 0.241819
v -0.667208 2.359201 0.241819
v -0.667208 2.359201 -0.092153
v -0.667208 0.064961 -0.092153
v -0.000000 2.359201 0.241819
v -0.000000 2.359201 -0.092153
v -0.667208 2.474574 0.241820
v -0.667208 2.474574 -0.092153
v -0.000000 2.474574 0.241820
v -0.000000 2.474574 -0.092153
v -0.782581 0.064960 -0.092153
v -0.782581 0.064960 0.241820
v -0.782581 2.359201 0.241820
v -0.782581 2.359201 -0.092153
v -0.782581 2.474574 0.241820
v -0.782581 2.474574 -0.092153
v 0.160278 2.527088 -0.055902
v 0.122671 2.583371 -0.055902
v 0.066389 2.620977 -0.055902
v 0.000000 2.634183 -0.055902
v -0.066389 2.620977 -0.055902
v -0.122671 2.583371 -0.055902
v -0.160278 2.527089 -0.055902
v -0.173483 2.460699 -0.055902
v 0.173483 2.460699 -0.055902
v 0.160278 2.527088 0.119992
v 0.122671 2.583371 0.119992
v 0.066389 2.620977 0.119992
v 0.000000 2.634183 0.119992
v -0.066389 2.620977 0.119992
v -0.122671 2.583371 0.119992
v -0.160278 2.527089 0.119992
v -0.173483 2.460699 0.119992
v 0.173483 2.460699 0.119992
v 0.000000 2.460699 0.119992
v 0.509519 2.607684 -0.067932
v 0.433422 2.740423 -0.067932
v 0.314900 2.845765 -0.067932
v 0.165553 2.913399 -0.067932
v 0.000000 2.936705 -0.067932
v -0.165553 2.913399 -0.067932
v -0.314900 2.845765 -0.067932
v -0.433422 2.740423 -0.067932
v -0.509518 2.607684 -0.067932
v -0.535739 2.460542 -0.067932
v 0.535739 2.460542 -0.067932
v 0.509519 2.607684 0.067932
v 0.433422 2.740423 0.067932
v 0.314900 2.845765 0.067932
v 0.165553 2.913399 0.067932
v 0.000000 2.936705 0.067932
v -0.165553 2.913399 0.067932
v -0.314900 2.845765 0.067932
v -0.433422 2.740423 0.067932
v -0.509518 2.607684 0.067932
v -0.535739 2.460542 0.067932
v 0.535739 2.460542 0.067932
v 0.000000 2.460542 -0.067932
v 0.000000 2.460542 0.067932
v 0.560091 2.626055 -0.067932
v 0.475252 2.774414 -0.067932
v 0.475252 2.774414 0.067932
v 0.560091 2.626055 0.067932
v 0.344305 2.891050 -0.067932
v 0.344305 2.891050 0.067932
v 0.180624 2.965313 -0.067932
v 0.180624 2.965313 0.067932
v 0.000000 2.990784 -0.067932
v 0.000000 2.990784 0.067932
v -0.180624 2.965313 -0.067932
v -0.180624 2.965313 0.067932
v -0.344305 2.891050 -0.067932
v -0.344305 2.891050 0.067932
v -0.475252 2.774414 -0.067932
v -0.475252 2.774414 0.067932
v -0.560091 2.626055 -0.067932
v -0.560091 2.626055 0.067932
v -0.589505 2.470122 -0.067932
v -0.589505 2.470122 0.067932
v 0.589505 2.470122 -0.067932
v 0.589505 2.470122 0.067932
v 0.509519 2.607684 0.120599
v 0.433422 2.740423 0.120599
v 0.560091 2.626055 0.120599
v 0.475252 2.774414 0.120599
v 0.314900 2.845765 0.120599
v 0.344305 2.891050 0.120599
v 0.165553 2.913399 0.120599
v 0.180624 2.965313 0.120599
v 0.000000 2.936705 0.120599
v 0.000000 2.990784 0.120599
v -0.165553 2.913399 0.120599
v -0.180624 2.965313 0.120599
v -0.314900 2.845765 0.120599
v -0.344305 2.891050 0.120599
v -0.433422 2.740423 0.120599
v -0.475252 2.774414 0.120599
v -0.509518 2.607684 0.120599
v -0.560091 2.626055 0.120599
v -0.535739 2.460542 0.120599
v -0.589505 2.470122 0.120599
v 0.535739 2.460542 0.120599
v 0.589505 2.470122 0.120599
vt 0.478321 0.413284
vt 0.521679 0.413284
vt 0.478321 0.456642
vt 0.521679 0.456642
vt 0.478321 0.500000
vt 0.521679 0.500000
vt 0.478321 0.543358
vt 0.521679 0.543358
vt 0.478321 0.586716
vt 0.521679 0.586716
vt 0.565037 0.413284
vt 0.565037 0.456642
vt 0.434963 0.413284
vt 0.434963 0.456642
vt 0.072186 0.678391
vt 0.087715 0.662862
vt 0.103244 0.662862
vt 0.103244 0.693920
vt 0.056658 0.631804
vt 0.087715 0.631804
vt 0.056658 0.662862
vt 0.087715 0.662862
vt 0.103244 0.662862
vt 0.087715 0.662862
vt 0.087715 0.693920
vt 0.103244 0.693920
vt 0.087715 0.631804
vt 0.056658 0.631804
vt 0.041129 0.631804
vt 0.165360 0.631804
vt 0.165360 0.756036
vt 0.041129 0.756036
vt 0.041129 0.631804
vt 0.165360 0.631804
vt 0.165360 0.756036
vt 0.041129 0.756036
vt 0.041129 0.631804
vt 0.165360 0.631804
vt 0.165360 0.756036
vt 0.041129 0.756036
vt 0.072186 0.678391
vt 0.087715 0.662862
vt 0.103244 0.662862
vt 0.103244 0.693920
vt 0.056658 0.631804
vt 0.087715 0.631804
vt 0.056658 0.662862
vt 0.087715 0.662862
vt 0.103244 0.662862
vt 0.087715 0.662862
vt 0.087715 0.693920
vt 0.103244 0.693920
vt 0.087715 0.631804
vt 0.056658 0.631804
vt 0.041129 0.631804
vt 0.165360 0.631804
vt 0.165360 0.756036
vt 0.041129 0.756036
vt 0.041129 0.631804
vt 0.165360 0.631804
vt 0.165360 0.756036
vt 0.041129 0.756036
vt 0.041129 0.631804
vt 0.165360 0.631804
vt 0.165360 0.756036
vt 0.041129 0.756036
vt 0.686659 0.432351
vt 0.689984 0.432351
vt 0.689984 0.512349
vt 0.686659 0.512349
vt 0.693309 0.432351
vt 0.693309 0.512349
vt 0.696633 0.432351
vt 0.696633 0.512349
vt 0.699958 0.432351
vt 0.699958 0.512349
vt 0.703283 0.432351
vt 0.703283 0.512349
vt 0.706608 0.432351
vt 0.706608 0.512349
vt 0.709933 0.432351
vt 0.709933 0.512349
vt 0.736532 0.432351
vt 0.739857 0.432351
vt 0.739857 0.512349
vt 0.736532 0.512349
vt 0.743976 0.558121
vt 0.736768 0.568908
vt 0.713258 0.544067
vt 0.725982 0.576115
vt 0.713258 0.578646
vt 0.700534 0.576115
vt 0.689747 0.568908
vt 0.682540 0.558121
vt 0.680009 0.545397
vt 0.746507 0.545397
vt 0.669319 0.648463
vt 0.672225 0.648463
vt 0.672225 0.735859
vt 0.669319 0.735859
vt 0.675131 0.648463
vt 0.675131 0.735859
vt 0.678036 0.648463
vt 0.678036 0.735859
vt 0.680942 0.648463
vt 0.680942 0.735859
vt 0.683848 0.648463
vt 0.683848 0.735859
vt 0.686754 0.648463
vt 0.686754 0.735859
vt 0.689660 0.648463
vt 0.689660 0.735859
vt 0.692566 0.648463
vt 0.692566 0.735859
vt 0.695472 0.648463
vt 0.695472 0.735859
vt 0.724531 0.648463
vt 0.727437 0.648463
vt 0.727437 0.735859
vt 0.724531 0.735859
vt 0.626409 0.064408
vt 0.648603 0.107966
vt 0.500000 0.150000
vt 0.591842 0.029841
vt 0.548284 0.007647
vt 0.500000 -0.000000
vt 0.451716 0.007647
vt 0.408159 0.029841
vt 0.373591 0.064409
vt 0.351397 0.107966
vt 0.343750 0.156250
vt 0.656250 0.156250
vt 0.951366 0.695075
vt 0.942712 0.712059
vt 0.893424 0.673812
vt 0.929234 0.725537
vt 0.912250 0.734191
vt 0.893424 0.737173
vt 0.874597 0.734191
vt 0.857614 0.725537
vt 0.844135 0.712059
vt 0.835482 0.695075
vt 0.832500 0.676249
vt 0.954348 0.676249
vt 0.669319 0.648463
vt 0.672225 0.648463
vt 0.672225 0.735859
vt 0.669319 0.735859
vt 0.669319 0.735859
vt 0.672225 0.735859
vt 0.675131 0.648463
vt 0.675131 0.735859
vt 0.675131 0.735859
vt 0.678036 0.648463
vt 0.678036 0.735859
vt 0.678036 0.735859
vt 0.680942 0.648463
vt 0.680942 0.735859
vt 0.680942 0.735859
vt 0.683848 0.648463
vt 0.683848 0.735859
vt 0.683848 0.735859
vt 0.686754 0.648463
vt 0.686754 0.735859
vt 0.686754 0.735859
vt 0.689660 0.648463
vt 0.689660 0.735859
vt 0.689660 0.735859
vt 0.692566 0.648463
vt 0.692566 0.735859
vt 0.692566 0.735859
vt 0.695472 0.648463
vt 0.695472 0.735859
vt 0.695472 0.735859
vt 0.695472 0.735859
vt 0.724531 0.648463
vt 0.727437 0.648463
vt 0.727437 0.735859
vt 0.724531 0.735859
vt 0.724531 0.735859
vt 0.727437 0.735859
vt 0.724531 0.735859
vt 0.672225 0.735859
vt 0.669319 0.735859
vt 0.675131 0.735859
vt 0.678036 0.735859
vt 0.680942 0.735859
vt 0.683848 0.735859
vt 0.686754 0.735859
vt 0.689660 0.735859
vt 0.692566 0.735859
vt 0.727437 0.735859
vt 0.087715 0.631804
vt 0.056658 0.631804
vt 0.072186 0.678391
vt 0.072186 0.678391
vt 0.103244 0.693920
vt 0.087715 0.662862
vt 0.087715 0.662862
vt 0.103244 0.662862
vt 0.087715 0.631804
vt 0.056658 0.631804
vt 0.072186 0.678391
vt 0.072186 0.678391
vt 0.103244 0.693920
vt 0.087715 0.662862
vt 0.087715 0.662862
vt 0.103244 0.662862
vn -0.000000 0.000000 1.000000
vn -0.000000 0.000000 1.000000
vn -0.000000 0.000000 1.000000
vn -0.000000 0.000000 1.000000
vn -0.510673 0.859775 0.000000
vn -0.510673 0.859775 0.000000
vn -0.510673 0.859775 0.000000
vn -0.510673 0.859775 0.000000
vn 0.000000 0.000000 -1.000000
vn 0.000000 0.000000 -1.000000
vn 0.000000 0.000000 -1.000000
vn 0.000000 0.000000 -1.000000
vn 0.510674 -0.859774 0.000000
vn 0.510674 -0.859774 0.000000
vn 0.510674 -0.859774 0.000000
vn 0.510674 -0.859774 0.000000
vn 0.812009 0.583645 0.000000
vn 0.812009 0.583645 0.000000
vn 0.812009 0.583645 0.000000
vn 0.812009 0.583645 0.000000
vn -0.901002 -0.433815 0.000000
vn -0.901002 -0.433815 0.000000
vn -0.901002 -0.433815 0.000000
vn -0.901002 -0.433815 0.000000
vn 0.000000 1.000000 0.000000
vn 0.000000 1.000000 0.000000
vn 0.000000 1.000000 0.000000
vn 0.000000 1.000000 0.000000
vn 1.000000 0.000000 0.000000
vn 1.000000 0.000000 0.000000
vn 1.000000 0.000000 0.000000
vn 1.000000 0.000000 0.000000
vn 0.000000 0.000002 -1.000000
vn 0.000000 0.000002 -1.000000
vn 0.000000 0.000002 -1.000000
vn 0.000000 0.000002 -1.000000
vn 0.000000 -0.000002 1.000000
vn 0.000000 -0.000002 1.000000
vn 0.000000 -0.000002 1.000000
vn 0.000000 -0.000002 1.000000
vn 0.000002 0.000000 -1.000000
vn 0.000002 0.000000 -1.000000
vn 0.000002 0.000000 -1.000000
vn 0.000002 0.000000 -1.000000
vn -0.000002 -0.000000 1.000000
vn -0.000002 0.000000 1.000000
vn -0.000002 0.000000 1.000000
vn -0.000002 -0.000000 1.000000
vn 0.000001 0.000001 -1.000000
vn 0.000001 0.000001 -1.000000
vn -0.000001 -0.000001 1.000000
vn -0.000001 -0.000001 1.000000
vn 1.000000 0.000000 0.000000
vn 1.000000 0.000000 0.000000
vn 0.000000 1.000000 0.000000
vn 0.000000 1.000000 0.000000
vn 0.000000 1.000000 0.000000
vn 0.000000 1.000000 0.000000
vn 0.000000 -1.000000 0.000000
vn 0.000000 -1.000000 0.000000
vn 0.000000 -1.000000 0.000000
vn 0.000000 -1.000000 0.000000
vn -1.000000 0.000000 0.000000
vn -1.000000 0.000000 0.000000
vn -1.000000 0.000000 0.000000
vn -1.000000 0.000000 0.000000
vn 0.000000 1.000000 0.000000
vn 0.000000 1.000000 0.000000
vn 0.000000 1.000000 0.000000
vn 0.000000 1.000000 0.000000
vn -1.000000 0.000000 0.000000
vn -1.000000 0.000000 0.000000
vn -1.000000 0.000000 0.000000
vn -1.000000 0.000000 0.000000
vn 0.000000 -0.000002 1.000000
vn 0.000000 -0.000002 1.000000
vn 0.000000 -0.000002 1.000000
vn 0.000000 -0.000002 1.000000
vn 0.000000 0.000002 -1.000000
vn 0.000000 0.000002 -1.000000
vn 0.000000 0.000002 -1.000000
vn 0.000000 0.000002 -1.000000
vn 0.000001 0.000000 1.000000
vn 0.000001 -0.000000 1.000000
vn 0.000001 -0.000000 1.000000
vn 0.000001 0.000000 1.000000
vn -0.000002 0.000000 -1.000000
vn -0.000002 0.000000 -1.000000
vn -0.000002 0.000000 -1.000000
vn -0.000002 0.000000 -1.000000
vn 0.000001 -0.000001 1.000000
vn 0.000001 -0.000001 1.000000
vn -0.000001 0.000001 -1.000000
vn -0.000001 0.000001 -1.000000
vn -1.000000 0.000000 0.000000
vn -1.000000 0.000000 0.000000
vn 0.000000 1.000000 0.000000
vn 0.000000 1.000000 0.000000
vn 0.000000 1.000000 0.000000
vn 0.000000 1.000000 0.000000
vn 0.000000 -1.000000 0.000000
vn 0.000000 -1.000000 0.000000
vn 0.000000 -1.000000 0.000000
vn 0.000000 -1.000000 0.000000
vn 1.000000 0.000000 0.000000
vn 1.000000 0.000000 0.000000
vn 1.000000 0.000000 0.000000
vn 1.000000 0.000000 0.000000
vn 0.923880 0.382683 0.000000
vn 0.707108 0.707106 0.000000
vn 0.707108 0.707106 0.000000
vn 0.923880 0.382683 0.000000
vn 0.382683 0.923880 0.000000
vn 0.382683 0.923880 0.000000
vn -0.000000 1.000000 0.000000
vn -0.000000 1.000000 0.000000
vn -0.382683 0.923880 0.000000
vn -0.382683 0.923880 0.000000
vn -0.707106 0.707107 0.000000
vn -0.707106 0.707107 0.000000
vn -0.923880 0.382684 0.000000
vn -0.923880 0.382684 0.000000
vn -0.980785 0.195091 0.000000
vn -0.980785 0.195091 0.000000
vn 0.980785 0.195090 0.000000
vn 0.980785 0.195090 0.000000
vn 0.000000 0.000000 1.000000
vn 0.000000 0.000000 1.000000
vn 0.000000 0.000000 1.000000
vn 0.000000 0.000000 1.000000
vn 0.000000 0.000000 1.000000
vn 0.000000 0.000000 1.000000
vn 0.000000 0.000000 1.000000
vn 0.000000 0.000000 1.000000
vn 0.000000 0.000000 1.000000
vn 0.000000 0.000000 1.000000
vn 0.936184 0.351510 0.000000
vn 0.775429 0.631435 0.000000
vn 0.775429 0.631435 0.000000
vn 0.936184 0.351510 0.000000
vn 0.543769 0.839235 0.000000
vn 0.543769 0.839235 0.000000
vn 0.278228 0.960515 0.000000
vn 0.278228 0.960515 0.000000
vn 0.000000 1.000000 0.000000
vn 0.000000 1.000000 0.000000
vn -0.278228 0.960515 0.000000
vn -0.278228 0.960515 0.000000
vn -0.543769 0.839235 0.000000
vn -0.543769 0.839235 0.000000
vn -0.775429 0.631434 0.000000
vn -0.775429 0.631434 0.000000
vn -0.936184 0.351510 0.000000
vn -0.936184 0.351510 0.000000
vn -0.982670 0.185364 0.000000
vn -0.982670 0.185364 0.000000
vn 0.982670 0.185362 0.000000
vn 0.982670 0.185362 0.000000
vn -0.000000 0.000000 -1.000000
vn -0.000000 0.000000 -1.000000
vn 0.000000 0.000000 -1.000000
vn 0.000000 0.000000 -1.000000
vn 0.000000 0.000000 -1.000000
vn -0.000000 0.000000 -1.000000
vn 0.000000 0.000000 -1.000000
vn 0.000000 0.000000 -1.000000
vn 0.000000 0.000000 -1.000000
vn -0.000000 0.000000 -1.000000
vn -0.000000 0.000000 -1.000000
vn -0.000000 0.000000 -1.000000
vn 0.000000 0.000000 1.000000
vn 0.000000 0.000000 1.000000
vn 0.000000 0.000000 1.000000
vn 0.000000 0.000000 1.000000
vn 0.000000 0.000000 1.000000
vn 0.000000 0.000000 1.000000
vn 0.000000 0.000000 1.000000
vn 0.000000 0.000000 1.000000
vn 0.000000 0.000000 1.000000
vn 0.000000 0.000000 1.000000
vn 0.000000 0.000000 1.000000
vn 0.000000 0.000000 1.000000
vn -0.000000 0.000000 -1.000000
vn -0.000000 0.000000 -1.000000
vn 0.000000 0.000000 1.000000
vn 0.000000 0.000000 1.000000
vn 0.000000 0.000000 1.000000
vn 0.000000 0.000000 1.000000
vn 0.000000 0.000000 -1.000000
vn 0.000000 0.000000 1.000000
vn 0.000000 0.000000 1.000000
vn 0.000000 0.000000 -1.000000
vn 0.000000 -0.000000 1.000000
vn 0.000000 -0.000000 1.000000
vn -0.000000 0.000000 -1.000000
vn 0.000000 -0.000000 1.000000
vn 0.000000 -0.000000 1.000000
vn -0.000000 0.000000 -1.000000
vn 0.000000 -0.000000 1.000000
vn 0.000000 -0.000000 1.000000
vn 0.000000 0.000000 -1.000000
vn 0.000000 0.000000 1.000000
vn 0.000000 0.000000 1.000000
vn 0.000000 0.000000 -1.000000
vn -0.000000 0.000000 1.000000
vn -0.000000 0.000000 1.000000
vn -0.000000 0.000000 -1.000000
vn -0.000000 0.000000 1.000000
vn -0.000000 0.000000 1.000000
vn -0.000000 0.000000 -1.000000
vn -0.175428 -0.984492 0.000000
vn -0.175428 -0.984492 0.000000
vn -0.175428 -0.984492 0.000000
vn -0.175428 -0.984492 0.000000
vn 0.000000 0.000000 1.000000
vn 0.000000 0.000000 1.000000
vn -0.000000 0.000000 -1.000000
vn 0.000000 0.000000 1.000000
vn 0.000000 0.000000 1.000000
vn 0.175428 -0.984492 0.000000
vn 0.175428 -0.984492 0.000000
vn 0.175428 -0.984492 0.000000
vn 0.175428 -0.984492 0.000000
vn -0.774236 -0.632897 0.000000
vn -0.939208 -0.343349 0.000000
vn -0.939208 -0.343349 0.000000
vn -0.774236 -0.632897 0.000000
vn 0.775429 0.631435 0.000000
vn 0.936184 0.351510 0.000000
vn -0.542476 -0.840071 0.000000
vn -0.542476 -0.840071 0.000000
vn 0.543769 0.839235 0.000000
vn -0.277451 -0.960740 0.000000
vn -0.277451 -0.960740 0.000000
vn 0.278228 0.960515 0.000000
vn 0.000000 -1.000000 0.000000
vn 0.000000 -1.000000 0.000000
vn 0.000000 1.000000 0.000000
vn 0.277451 -0.960740 0.000000
vn 0.277451 -0.960740 0.000000
vn -0.278228 0.960515 0.000000
vn 0.542476 -0.840071 0.000000
vn 0.542476 -0.840071 0.000000
vn -0.543769 0.839235 0.000000
vn 0.774236 -0.632897 0.000000
vn 0.774236 -0.632897 0.000000
vn -0.775430 0.631434 0.000000
vn 0.939208 -0.343349 0.000000
vn 0.939208 -0.343349 0.000000
vn -0.936184 0.351511 0.000000
vn 0.984491 -0.175437 0.000000
vn 0.984491 -0.175437 0.000000
vn -0.982670 0.185364 0.000000
vn -0.175428 -0.984492 0.000000
vn -0.175428 -0.984492 0.000000
vn -0.984491 -0.175435 0.000000
vn -0.984491 -0.175435 0.000000
vn 0.175428 -0.984492 0.000000
vn 0.175428 -0.984492 0.000000
vn 0.982670 0.185362 0.000000
g elevatorDoor pCube2
f 17/25/49 18/26/50 20/28/51 19/27/52
f 19/27/53 20/28/54 22/30/55 21/29/56
f 21/29/57 22/30/58 24/32/59 23/31/60
f 23/31/61 24/32/62 18/34/63 17/33/64
f 18/26/65 24/35/66 22/36/67 20/28/68
f 23/37/69 17/25/70 19/27/71 21/38/72
f 32/39/73 31/40/74 33/41/75 34/42/76
f 35/43/77 36/44/78 37/40/79 38/45/80
f 26/231/81 29/232/82 33/47/83 31/48/84
f 30/42/85 27/227/86 32/49/87 34/50/88
f 25/51/89 26/230/90 37/40/91 36/44/92
f 27/228/93 28/226/94 35/43/95 38/45/96
f 37/53/91 26/54/90 31/55/97 39/56/98
f 27/57/93 38/58/96 40/59/99 32/60/100
f 38/61/80 37/62/79 39/63/101 40/64/102
f 32/60/103 40/64/104 39/56/105 31/40/106
f 29/41/107 26/46/108 27/39/109 30/229/110
f 26/46/111 25/225/112 28/52/113 27/39/114
f 48/65/115 47/66/116 49/67/117 50/68/118
f 51/69/119 52/70/120 53/66/121 54/71/122
f 42/223/123 45/224/124 49/73/125 47/74/126
f 46/68/127 43/219/128 48/75/129 50/76/130
f 41/77/131 42/222/132 53/66/133 52/70/134
f 43/220/135 44/218/136 51/69/137 54/71/138
f 53/79/133 42/80/132 47/81/139 55/82/140
f 43/83/135 54/84/138 56/85/141 48/86/142
f 54/87/122 53/88/121 55/89/143 56/90/144
f 48/86/145 56/90/146 55/82/147 47/66/148
f 45/67/149 42/72/150 43/65/151 46/221/152
f 42/72/153 41/217/154 44/78/155 43/65/156
f 57/91/157 58/92/158 67/93/159 66/94/160
f 58/92/158 59/95/161 68/96/162 67/93/159
f 59/95/161 60/97/163 69/98/164 68/96/162
f 60/97/163 61/99/165 70/100/166 69/98/164
f 61/99/165 62/101/167 71/102/168 70/100/166
f 62/101/167 63/103/169 72/104/170 71/102/168
f 63/103/169 64/105/171 73/106/172 72/104/170
f 65/107/173 57/108/157 66/109/160 74/110/174
f 66/111/175 67/112/176 75/113/177
f 67/112/176 68/114/178 75/113/177
f 68/114/178 69/115/179 75/113/177
f 69/115/179 70/116/180 75/113/177
f 70/116/180 71/117/181 75/113/177
f 71/117/181 72/118/182 75/113/177
f 72/118/182 73/119/183 75/113/177
f 74/120/184 66/111/175 75/113/177
f 100/121/185 101/122/186 102/123/187 103/124/188
f 101/122/186 104/125/189 105/126/190 102/123/187
f 104/125/189 106/127/191 107/128/192 105/126/190
f 106/127/191 108/129/193 109/130/194 107/128/192
f 108/129/193 110/131/195 111/132/196 109/130/194
f 110/131/195 112/133/197 113/134/198 111/132/196
f 112/133/197 114/135/199 115/136/200 113/134/198
f 114/135/199 116/137/201 117/138/202 115/136/200
f 116/137/201 118/139/203 119/140/204 117/138/202
f 120/141/205 100/142/185 103/143/188 121/144/206
f 77/145/207 76/146/208 98/147/209
f 78/148/210 77/145/207 98/147/209
f 79/149/211 78/148/210 98/147/209
f 80/150/212 79/149/211 98/147/209
f 81/151/213 80/150/212 98/147/209
f 82/152/214 81/151/213 98/147/209
f 83/153/215 82/152/214 98/147/209
f 84/154/216 83/153/215 98/147/209
f 85/155/217 84/154/216 98/147/209
f 76/146/208 86/156/218 98/147/209
f 87/157/219 88/158/220 99/159/221
f 88/158/220 89/160/222 99/159/221
f 89/160/222 90/161/223 99/159/221
f 90/161/223 91/162/224 99/159/221
f 91/162/224 92/163/225 99/159/221
f 92/163/225 93/164/226 99/159/221
f 93/164/226 94/165/227 99/159/221
f 94/165/227 95/166/228 99/159/221
f 95/166/228 96/167/229 99/159/221
f 97/168/230 87/157/219 99/159/221
f 76/169/208 77/170/207 101/122/231 100/121/232
f 123/171/233 122/172/234 124/173/235 125/174/236
f 77/170/207 78/175/210 104/125/237 101/122/231
f 126/176/238 123/171/233 125/174/236 127/177/239
f 78/175/210 79/178/211 106/127/240 104/125/237
f 128/179/241 126/176/238 127/177/239 129/180/242
f 79/178/211 80/181/212 108/129/243 106/127/240
f 130/182/244 128/179/241 129/180/242 131/183/245
f 80/181/212 81/184/213 110/131/246 108/129/243
f 132/185/247 130/182/244 131/183/245 133/186/248
f 81/184/213 82/187/214 112/133/249 110/131/246
f 134/188/250 132/185/247 133/186/248 135/189/251
f 82/187/214 83/190/215 114/135/252 112/133/249
f 136/191/253 134/188/250 135/189/251 137/192/254
f 83/190/215 84/193/216 116/137/255 114/135/252
f 138/194/256 136/191/253 137/192/254 139/195/257
f 84/193/216 85/196/217 118/139/258 116/137/255
f 85/196/259 96/197/260 119/140/261 118/139/262
f 140/198/263 138/194/256 139/195/257 141/199/264
f 86/200/218 76/201/208 100/142/232 120/141/265
f 122/202/234 142/203/266 143/204/267 124/205/235
f 97/206/268 86/200/269 120/141/270 121/144/271
f 88/207/272 87/208/273 122/172/274 123/171/275
f 103/124/188 102/123/187 125/174/276 124/173/277
f 89/209/278 88/207/272 123/171/275 126/176/279
f 102/123/187 105/126/190 127/177/280 125/174/276
f 90/210/281 89/209/278 126/176/279 128/179/282
f 105/126/190 107/128/192 129/180/283 127/177/280
f 91/211/284 90/210/281 128/179/282 130/182/285
f 107/128/192 109/130/194 131/183/286 129/180/283
f 92/212/287 91/211/284 130/182/285 132/185/288
f 109/130/194 111/132/196 133/186/289 131/183/286
f 93/213/290 92/212/287 132/185/288 134/188/291
f 111/132/196 113/134/198 135/189/292 133/186/289
f 94/214/293 93/213/290 134/188/291 136/191/294
f 113/134/198 115/136/200 137/192/295 135/189/292
f 95/215/296 94/214/293 136/191/294 138/194/297
f 115/136/200 117/138/202 139/195/298 137/192/295
f 96/197/299 95/215/296 138/194/297 140/198/300
f 117/138/202 119/140/204 141/199/301 139/195/298
f 119/140/261 96/197/260 140/198/302 141/199/303
f 87/216/273 97/206/304 142/203/305 122/202/274
f 97/206/268 121/144/271 143/204/306 142/203/307
f 121/144/206 103/143/188 124/205/277 143/204/308
