# This file uses centimeters as units for non-parametric coordinates.

g default
v -2.019104 0.012203 0.227794
v 2.019104 0.012203 0.227794
v -2.019104 2.361650 0.227794
v 2.019104 2.361650 0.227794
v -2.019104 2.361650 -0.014383
v 2.019104 2.361650 -0.014383
v -2.019104 0.012203 -0.014383
v 2.019104 0.012203 -0.014383
v -1.942928 0.102608 0.231537
v 1.942928 0.102608 0.231537
v 1.942928 2.271246 0.231537
v -1.942928 2.271246 0.231537
v -1.942928 2.271246 -0.018126
v 1.942928 2.271246 -0.018126
v 1.942928 0.102608 -0.018126
v -1.942928 0.102608 -0.018126
v -1.942928 0.102608 0.130452
v 1.942928 0.102608 0.130452
v 1.942928 2.271246 0.130452
v -1.942928 2.271246 0.130452
v -1.942928 2.271246 0.082958
v 1.942928 2.271246 0.082958
v 1.942928 0.102608 0.082958
v -1.942928 0.102608 0.082958
vt 0.094402 0.625117
vt 0.125460 0.625117
vt 0.094402 0.656175
vt 0.125460 0.656175
vt 0.094402 0.687233
vt 0.125460 0.687233
vt 0.094402 0.718291
vt 0.125460 0.718291
vt 0.094402 0.749349
vt 0.125460 0.749349
vt 0.156518 0.625117
vt 0.156518 0.656175
vt 0.063344 0.625117
vt 0.063344 0.656175
vt 0.094402 0.625117
vt 0.125460 0.625117
vt 0.125460 0.656175
vt 0.094402 0.656175
vt 0.094402 0.687233
vt 0.125460 0.687233
vt 0.125460 0.718291
vt 0.094402 0.718291
vt 0.458029 0.616867
vt 0.125460 0.625117
vt 0.125460 0.656175
vt 0.094402 0.656175
vt 0.458029 0.713423
vt 0.125460 0.687233
vt 0.125460 0.718291
vt 0.094402 0.718291
vt 0.094402 0.687233
vt 0.458029 0.761701
vt 0.506307 0.761701
vt 0.506307 0.713423
vt 0.094402 0.625117
vt 0.458029 0.665145
vt 0.506307 0.665145
vt 0.506307 0.616867
vn 0.000000 0.000000 1.000000
vn 0.000000 0.000000 1.000000
vn 0.000000 0.000000 1.000000
vn 0.000000 0.000000 1.000000
vn 0.000000 1.000000 0.000000
vn 0.000000 1.000000 0.000000
vn 0.000000 1.000000 0.000000
vn 0.000000 1.000000 0.000000
vn 0.000000 0.000000 -1.000000
vn 0.000000 0.000000 -1.000000
vn 0.000000 0.000000 -1.000000
vn 0.000000 0.000000 -1.000000
vn 0.000000 -1.000000 0.000000
vn 0.000000 -1.000000 0.000000
vn 0.000000 -1.000000 0.000000
vn 0.000000 -1.000000 0.000000
vn 1.000000 0.000000 0.000000
vn 1.000000 0.000000 0.000000
vn 1.000000 0.000000 0.000000
vn 1.000000 0.000000 0.000000
vn -1.000000 0.000000 0.000000
vn -1.000000 0.000000 0.000000
vn -1.000000 0.000000 0.000000
vn -1.000000 0.000000 0.000000
vn -0.013692 -0.029847 0.999461
vn 0.013692 -0.029847 0.999461
vn 0.016727 -0.027290 0.999488
vn -0.016727 -0.027290 0.999488
vn 0.013692 0.029847 0.999461
vn 0.016727 0.027290 0.999488
vn -0.013692 0.029847 0.999461
vn -0.016727 0.027290 0.999488
vn -0.013692 0.029847 -0.999461
vn 0.013692 0.029847 -0.999461
vn 0.016727 0.027290 -0.999488
vn -0.016727 0.027290 -0.999488
vn 0.013691 -0.029847 -0.999461
vn 0.016727 -0.027290 -0.999488
vn -0.013691 -0.029847 -0.999461
vn -0.016727 -0.027290 -0.999488
vn 0.000000 1.000000 0.000000
vn 0.000000 1.000000 0.000000
vn 0.000000 1.000000 0.000000
vn 0.000000 1.000000 0.000000
vn -1.000000 0.000000 0.000000
vn -1.000000 0.000000 0.000000
vn -1.000000 0.000000 0.000000
vn -1.000000 0.000000 0.000000
vn 0.000000 -1.000000 0.000000
vn 0.000000 -1.000000 0.000000
vn 0.000000 -1.000000 0.000000
vn 0.000000 -1.000000 0.000000
vn 1.000000 0.000000 0.000000
vn 1.000000 0.000000 0.000000
vn 1.000000 0.000000 0.000000
vn 1.000000 0.000000 0.000000
vn 0.000000 -1.000000 0.000000
vn 0.000000 -1.000000 0.000000
vn 0.000000 -1.000000 0.000000
vn 0.000000 -1.000000 0.000000
vn -1.000000 0.000000 0.000000
vn -1.000000 0.000000 0.000000
vn -1.000000 0.000000 0.000000
vn -1.000000 0.000000 0.000000
vn 0.000000 1.000000 0.000000
vn 0.000000 1.000000 0.000000
vn 0.000000 1.000000 0.000000
vn 0.000000 1.000000 0.000000
vn 1.000000 0.000000 0.000000
vn 1.000000 0.000000 0.000000
vn 1.000000 0.000000 0.000000
vn 1.000000 0.000000 0.000000
g gateDoor
f 17/23/1 18/38/2 19/37/3 20/36/4
f 3/3/5 4/4/6 6/6/7 5/5/8
f 21/27/9 22/34/10 23/33/11 24/32/12
f 7/7/13 8/8/14 2/10/15 1/9/16
f 2/2/17 8/11/18 6/12/19 4/4/20
f 7/13/21 1/1/22 3/3/23 5/14/24
f 1/1/25 2/2/26 10/16/27 9/15/28
f 2/2/26 4/4/29 11/17/30 10/16/27
f 4/4/29 3/3/31 12/18/32 11/17/30
f 3/3/31 1/1/25 9/15/28 12/18/32
f 5/5/33 6/6/34 14/20/35 13/19/36
f 6/6/34 8/8/37 15/21/38 14/20/35
f 8/8/37 7/7/39 16/22/40 15/21/38
f 7/7/39 5/5/33 13/19/36 16/22/40
f 9/15/41 10/16/42 18/24/43 17/35/44
f 10/16/45 11/17/46 19/25/47 18/24/48
f 11/17/49 12/18/50 20/26/51 19/25/52
f 12/18/53 9/15/54 17/35/55 20/26/56
f 13/19/57 14/20/58 22/28/59 21/31/60
f 14/20/61 15/21/62 23/29/63 22/28/64
f 15/21/65 16/22/66 24/30/67 23/29/68
f 16/22/69 13/19/70 21/31/71 24/30/72
