# This file uses centimeters as units for non-parametric coordinates.

g default
v -1.250000 -0.125000 1.250000
v 1.250000 -0.125000 1.250000
v -1.250000 0.125000 1.250000
v 1.250000 0.125000 1.250000
v -1.250000 0.125000 -1.250000
v 1.250000 0.125000 -1.250000
v -1.250000 -0.125000 -1.250000
v 1.250000 -0.125000 -1.250000
vt 0.313606 0.619839
vt 0.349584 0.619839
vt 0.313606 0.655817
vt 0.349584 0.655817
vt 0.313606 0.691795
vt 0.349584 0.691795
vt 0.313606 0.727773
vt 0.349584 0.727773
vt 0.313606 0.763751
vt 0.349584 0.763751
vt 0.385561 0.619839
vt 0.385561 0.655817
vt 0.277628 0.619839
vt 0.277628 0.655817
vn 0.000000 0.000000 1.000000
vn 0.000000 0.000000 1.000000
vn 0.000000 0.000000 1.000000
vn 0.000000 0.000000 1.000000
vn 0.000000 1.000000 0.000000
vn 0.000000 1.000000 0.000000
vn 0.000000 1.000000 0.000000
vn 0.000000 1.000000 0.000000
vn 0.000000 0.000000 -1.000000
vn 0.000000 0.000000 -1.000000
vn 0.000000 0.000000 -1.000000
vn 0.000000 0.000000 -1.000000
vn 0.000000 -1.000000 0.000000
vn 0.000000 -1.000000 0.000000
vn 0.000000 -1.000000 0.000000
vn 0.000000 -1.000000 0.000000
vn 1.000000 0.000000 0.000000
vn 1.000000 0.000000 0.000000
vn 1.000000 0.000000 0.000000
vn 1.000000 0.000000 0.000000
vn -1.000000 0.000000 0.000000
vn -1.000000 0.000000 0.000000
vn -1.000000 0.000000 0.000000
vn -1.000000 0.000000 0.000000
g floorTile
f 1/1/1 2/2/2 4/4/3 3/3/4
f 3/3/5 4/4/6 6/6/7 5/5/8
f 5/5/9 6/6/10 8/8/11 7/7/12
f 7/7/13 8/8/14 2/10/15 1/9/16
f 2/2/17 8/11/18 6/12/19 4/4/20
f 7/13/21 1/1/22 3/3/23 5/14/24
