# This file uses centimeters as units for non-parametric coordinates.

g default
v -0.625000 0.000000 0.125000
v 0.625000 0.000000 0.125000
v -0.625000 1.000000 0.125000
v 0.625000 1.000000 0.125000
v -0.625000 1.000000 -0.125000
v 0.625000 1.000000 -0.125000
v -0.625000 0.000000 -0.125000
v 0.625000 0.000000 -0.125000
vt 0.871388 0.619597
vt 0.909826 0.619597
vt 0.871388 0.658035
vt 0.909826 0.658035
vt 0.871388 0.696473
vt 0.909826 0.696473
vt 0.871388 0.734911
vt 0.909826 0.734911
vt 0.871388 0.773349
vt 0.909826 0.773349
vt 0.948264 0.619597
vt 0.948264 0.658035
vt 0.832950 0.619597
vt 0.832950 0.658035
vn 0.000000 0.000000 1.000000
vn 0.000000 0.000000 1.000000
vn 0.000000 0.000000 1.000000
vn 0.000000 0.000000 1.000000
vn 0.000000 1.000000 0.000000
vn 0.000000 1.000000 0.000000
vn 0.000000 1.000000 0.000000
vn 0.000000 1.000000 0.000000
vn 0.000000 0.000000 -1.000000
vn 0.000000 0.000000 -1.000000
vn 0.000000 0.000000 -1.000000
vn 0.000000 0.000000 -1.000000
vn 0.000000 -1.000000 0.000000
vn 0.000000 -1.000000 0.000000
vn 0.000000 -1.000000 0.000000
vn 0.000000 -1.000000 0.000000
vn 1.000000 0.000000 0.000000
vn 1.000000 0.000000 0.000000
vn 1.000000 0.000000 0.000000
vn 1.000000 0.000000 0.000000
vn -1.000000 0.000000 0.000000
vn -1.000000 0.000000 0.000000
vn -1.000000 0.000000 0.000000
vn -1.000000 0.000000 0.000000
g wallTile
f 1/1/1 2/2/2 4/4/3 3/3/4
f 3/3/5 4/4/6 6/6/7 5/5/8
f 5/5/9 6/6/10 8/8/11 7/7/12
f 7/7/13 8/8/14 2/10/15 1/9/16
f 2/2/17 8/11/18 6/12/19 4/4/20
f 7/13/21 1/1/22 3/3/23 5/14/24
